<?xml version="1.0" encoding="UTF-8" standalone="no"?>
<!DOCTYPE svg PUBLIC "-//W3C//DTD SVG 1.1//EN"
"http://www.w3.org/Graphics/SVG/1.1/DTD/svg11.dtd">
<svg viewBox="0 0 909 1286" version="1.1" xmlns="http://www.w3.org/2000/svg" xmlns:xlink="http://www.w3.org/1999/xlink">
<defs>
<clipPath id="c0"><path d="M0,1286.8V0H909.8V1286.8Z"/></clipPath>
<clipPath id="c1"><path d="M398.1,165V58.1H505V165Z"/></clipPath>
<clipPath id="c2"><path d="M345.9,49.8V28.2h11.2V49.8Z"/></clipPath>
<clipPath id="c3"><path d="M191.4,46.8v-13h19.9v13Z"/></clipPath>
<clipPath id="c4"><path d="M477,50V28.3h14.3V50Z"/></clipPath>
<clipPath id="c5"><path d="M681.8,47.5V30.2h17.3V47.5Z"/></clipPath>
<clipPath id="c6"><path d="M848.9,46.8V29.6h17.3V46.8Z"/></clipPath>
<clipPath id="c7"><path d="M145.5,1260.3v-25.9h26v25.9Z"/></clipPath>
<clipPath id="c8"><path d="M306.8,1260.4v-23.7h26v23.7Z"/></clipPath>
<clipPath id="c9"><path d="M554.4,1260v-23.7h23.7V1260Z"/></clipPath>
<clipPath id="ca"><path d="M838.1,1260.2v-28.1h28.2v28.1Z"/></clipPath>
<style type="text/css"><![CDATA[
.g0{
fill: #FFFFFF;
}
.g1{
fill: #F14E40;
}
.g2{
fill: #4F81BD;
}
.g3{
fill: none;
stroke: #4A7EBB;
stroke-width: 1.145;
stroke-linecap: butt;
stroke-linejoin: round;
}
]]></style>
</defs>
<path fill-rule="evenodd" d="M223.7,49.3h11.5V21.8H223.7V49.3Z" class="g0"/>
<path fill-rule="evenodd" d="M369.4,49.3h5.8V21.8h-5.8V49.3Z" class="g0"/>
<path fill-rule="evenodd" d="M502.5,49.3H514V21.8H502.5V49.3Z" class="g0"/>
<path fill-rule="evenodd" d="M712.5,49.3h11.4V21.8H712.5V49.3Z" class="g0"/>
<path fill-rule="evenodd" d="M43.6,190.4H867.4v-2.3H43.6v2.3Z" class="g1"/>
<path fill-rule="evenodd" d="M166.4,216.7h8V198.4h-8v18.3Z" class="g0"/>
<path fill-rule="evenodd" d="M602.3,216.7h6.9V198.4h-6.9v18.3Z" class="g0"/>
<path fill-rule="evenodd" d="M719.4,216.7h4.5V198.4h-4.5v18.3Z" class="g0"/>
<path fill-rule="evenodd" d="M611.5,243.1h82.6V224.8H611.5v18.3Z" class="g0"/>
<path fill-rule="evenodd" d="M787,317.7h74.6V299.3H787v18.4Z" class="g0"/>
<path fill-rule="evenodd" d="M448.6,432.4h82.6V414H448.6v18.4Z" class="g0"/>
<path fill-rule="evenodd" d="M654,528.7h82.6V510.4H654v18.3Z" class="g0"/>
<path fill-rule="evenodd" d="M177.8,623.9h21.8V605.5H177.8v18.4Z" class="g0"/>
<path fill-rule="evenodd" d="M559.9,623.9h21.8V605.5H559.9v18.4Z" class="g0"/>
<path fill-rule="evenodd" d="M706.8,623.9h13.7V605.5H706.8v18.4Z" class="g0"/>
<path fill-rule="evenodd" d="M621.8,650.3h74.6V631.9H621.8v18.4Z" class="g0"/>
<path fill-rule="evenodd" d="M133.1,708.8h21.8V690.4H133.1v18.4Z" class="g0"/>
<path fill-rule="evenodd" d="M556.5,708.8h21.7V690.4H556.5v18.4Z" class="g0"/>
<path fill-rule="evenodd" d="M703.3,708.8h25.2V690.4H703.3v18.4Z" class="g0"/>
<path fill-rule="evenodd" d="M298.3,735.1h73.4V716.8H298.3v18.3Z" class="g0"/>
<path fill-rule="evenodd" d="M43.6,806.3H867.4V804H43.6v2.3Z" class="g1"/>
<path fill-rule="evenodd" d="M43.6,1032.2H867.4v-2.3H43.6v2.3Z" class="g1"/>
<path fill-rule="evenodd" d="M243.2,1058.6h8v-18.4h-8v18.4Z" class="g0"/>
<path fill-rule="evenodd" d="M579.4,1058.6h6.9v-18.4h-6.9v18.4Z" class="g0"/>
<path fill-rule="evenodd" d="M670,1058.6h2.3v-18.4H670v18.4Z" class="g0"/>
<path fill-rule="evenodd" d="M781.3,1058.6h8v-18.4h-8v18.4Z" class="g0"/>
<path fill-rule="evenodd" d="M43.6,1230.6H867.4v-2.3H43.6v2.3Z" class="g1"/>
<path fill-rule="evenodd" d="M181.3,1260.4H187v-28.7h-5.7v28.7Z" class="g0"/>
<path fill-rule="evenodd" d="M343.1,1260.4h5.7v-28.7h-5.7v28.7Z" class="g0"/>
<path fill-rule="evenodd" d="M588.6,1260.4h5.7v-28.7h-5.7v28.7Z" class="g0"/>
<path clip-path="url(#c0)" fill-rule="evenodd" d="M-3.6,84.6H13l16.6,16.6v18.2H-3.6Z" class="g2"/>
<path d="M540.2,154.3c-3.9,0,-7.1,-3.2,-7.1,-7.1V118.6c0,-3.9,-3.2,-7.1,-7.2,-7.1c4,0,7.2,-3.2,7.2,-7.2V75.8c0,-3.9,3.2,-7.1,7.1,-7.1m308.6,0c3.9,0,7.1,3.2,7.1,7.1v28.5c0,4,3.2,7.2,7.1,7.2c-3.9,0,-7.1,3.2,-7.1,7.1v28.6c0,3.9,-3.2,7.1,-7.1,7.1" class="g3"/>
<path clip-path="url(#c0)" fill-rule="evenodd" d="M-3.6,154.3H12.9L29.6,171v18.1H-3.6Z" class="g1"/>
<image clip-path="url(#c1)" preserveAspectRatio="none" x="398" y="58" width="107" height="107" xlink:href="img/1.png"/>
<g clip-path="url(#c0)">
<path fill-rule="evenodd" d="M-1.5,769.5H15l16.7,16.6v18.2H-1.5Z" class="g1"/>
<path fill-rule="evenodd" d="M-1.4,1193.1H15.2l16.7,16.7v18.1H-1.4Z" class="g1"/>
</g>
<image clip-path="url(#c2)" preserveAspectRatio="none" x="346" y="28" width="11" height="22" xlink:href="img/2.png"/>
<image clip-path="url(#c3)" preserveAspectRatio="none" x="191" y="34" width="20" height="13" xlink:href="img/3.png"/>
<image clip-path="url(#c4)" preserveAspectRatio="none" x="477" y="28" width="14" height="22" xlink:href="img/4.png"/>
<image clip-path="url(#c5)" preserveAspectRatio="none" x="682" y="30" width="17" height="18" xlink:href="img/5.jpg"/>
<image clip-path="url(#c6)" preserveAspectRatio="none" x="849" y="30" width="17" height="17" xlink:href="img/6.png"/>
<path clip-path="url(#c0)" fill-rule="evenodd" d="M-2,995.1H14.6l16.6,16.6v18.2H-2Z" class="g1"/>
<image clip-path="url(#c7)" preserveAspectRatio="none" x="146" y="1234" width="25" height="26" xlink:href="img/7.png"/>
<image clip-path="url(#c8)" preserveAspectRatio="none" x="307" y="1237" width="26" height="23" xlink:href="img/8.png"/>
<image clip-path="url(#c9)" preserveAspectRatio="none" x="554" y="1236" width="24" height="24" xlink:href="img/9.png"/>
<image clip-path="url(#ca)" preserveAspectRatio="none" x="838" y="1232" width="28" height="28" xlink:href="img/10.png"/>
</svg>