<?xml version="1.0" encoding="UTF-8" standalone="no"?>
<!DOCTYPE svg PUBLIC "-//W3C//DTD SVG 1.1//EN"
"http://www.w3.org/Graphics/SVG/1.1/DTD/svg11.dtd">
<svg viewBox="0 0 909 1286" version="1.1" xmlns="http://www.w3.org/2000/svg" xmlns:xlink="http://www.w3.org/1999/xlink">
<defs>
<clipPath id="c0"><path d="M0,1286.3V0H909.5V1286.3Z"/></clipPath>
<clipPath id="c1"><path d="M590,247.2V236.3h12.9v10.9Z"/></clipPath>
<clipPath id="c2"><path d="M579.3,601.8v-11h12.9v11Z"/></clipPath>
<clipPath id="c3"><path d="M345.9,49.8V28.2h11.2V49.8Z"/></clipPath>
<clipPath id="c4"><path d="M191.4,46.8v-13h19.9v13Z"/></clipPath>
<clipPath id="c5"><path d="M477,50V28.3h14.3V50Z"/></clipPath>
<clipPath id="c6"><path d="M681.8,47.5V30.2h17.3V47.5Z"/></clipPath>
<clipPath id="c7"><path d="M848.9,46.8V29.6h17.3V46.8Z"/></clipPath>
<clipPath id="c8"><path d="M183,1256.5v-26h25.9v26Z"/></clipPath>
<clipPath id="c9"><path d="M328.5,1258v-23.7h26V1258Z"/></clipPath>
<clipPath id="ca"><path d="M578,1256.1v-23.8h23.8v23.8Z"/></clipPath>
<clipPath id="cb"><path d="M838.4,1258.7v-28.2h28.1v28.2Z"/></clipPath>
<style type="text/css"><![CDATA[
.g0{
fill: #F14E40;
}
.g1{
fill: #FFF;
}
.g2{
fill: none;
stroke: #F14E40;
stroke-width: 1.145;
stroke-linejoin: round;
}
]]></style>
</defs>
<image clip-path="url(#c0)" preserveAspectRatio="none" x="26" y="230" width="174" height="33" xlink:href="img/1.png"/>
<path fill-rule="evenodd" d="M32.4,251.5l4.9,-19.6H193.8l-4.9,19.6Z" class="g0"/>
<image clip-path="url(#c0)" preserveAspectRatio="none" x="184" y="230" width="438" height="32" xlink:href="img/2.png"/>
<path fill-rule="evenodd" d="M190.7,251.5l4.7,-19.6H615.9l-4.7,19.6Z" class="g0"/>
<image clip-path="url(#c0)" preserveAspectRatio="none" x="607" y="230" width="100" height="32" xlink:href="img/3.png"/>
<path fill-rule="evenodd" d="M613.1,251.5l4.7,-19.6h83.5l-4.7,19.6Z" class="g0"/>
<image clip-path="url(#c0)" preserveAspectRatio="none" x="692" y="230" width="162" height="32" xlink:href="img/4.png"/>
<path fill-rule="evenodd" d="M698,251.5l4.7,-19.6H848.5l-4.8,19.6Z" class="g0"/>
<path fill-rule="evenodd" d="M838.5,232.1h9.8c5.5,0,9.9,4.4,9.9,9.7c0,5.3,-4.4,9.7,-9.9,9.7h-9.8Z" class="g0"/>
<image clip-path="url(#c0)" preserveAspectRatio="none" x="27" y="586" width="108" height="31" xlink:href="img/5.png"/>
<path fill-rule="evenodd" d="M33.4,607l4.8,-19.4h91.2L124.5,607Z" class="g0"/>
<image clip-path="url(#c0)" preserveAspectRatio="none" x="120" y="586" width="491" height="32" xlink:href="img/6.png"/>
<path fill-rule="evenodd" d="M126,607.4l5.2,-19.8H605.4l-5.3,19.8Z" class="g0"/>
<image clip-path="url(#c0)" preserveAspectRatio="none" x="595" y="586" width="121" height="32" xlink:href="img/7.png"/>
<path fill-rule="evenodd" d="M601.7,607.4l5.2,-19.8H710.6l-5.3,19.8Z" class="g0"/>
<image clip-path="url(#c0)" preserveAspectRatio="none" x="701" y="586" width="150" height="31" xlink:href="img/8.png"/>
<path fill-rule="evenodd" d="M706.9,607l5,-19.4h133l-5,19.4Z" class="g0"/>
<path fill-rule="evenodd" d="M838.8,587.6h9.8c5.4,0,9.8,4.4,9.8,9.7c0,5.4,-4.4,9.7,-9.8,9.7h-9.8Z" class="g0"/>
<image clip-path="url(#c0)" preserveAspectRatio="none" x="26" y="819" width="106" height="32" xlink:href="img/9.png"/>
<path fill-rule="evenodd" d="M32.4,840.7L37.5,821h88.9l-5.1,19.7Z" class="g0"/>
<image clip-path="url(#c0)" preserveAspectRatio="none" x="116" y="819" width="437" height="32" xlink:href="img/10.png"/>
<path fill-rule="evenodd" d="M122.8,841l4.9,-20H546.8l-4.9,20Z" class="g0"/>
<image clip-path="url(#c0)" preserveAspectRatio="none" x="537" y="819" width="121" height="32" xlink:href="img/11.png"/>
<path fill-rule="evenodd" d="M543.6,840.7L548.3,821H652.4l-4.7,19.7Z" class="g0"/>
<image clip-path="url(#c0)" preserveAspectRatio="none" x="642" y="819" width="155" height="32" xlink:href="img/12.png"/>
<path fill-rule="evenodd" d="M648.8,840.7L653.6,821H790.7l-4.8,19.7Z" class="g0"/>
<path fill-rule="evenodd" d="M780.8,821.1h9.8c5.4,0,9.8,4.4,9.8,9.8c0,5.5,-4.4,9.9,-9.8,9.9h-9.8Z" class="g0"/>
<image clip-path="url(#c0)" preserveAspectRatio="none" x="26" y="1085" width="226" height="32" xlink:href="img/13.png"/>
<path fill-rule="evenodd" d="M32.6,1106.2l4.8,-19.8H246.6l-4.8,19.8Z" class="g0"/>
<image clip-path="url(#c0)" preserveAspectRatio="none" x="237" y="1085" width="349" height="32" xlink:href="img/14.png"/>
<path fill-rule="evenodd" d="M243.1,1106.2l4.7,-19.8H580l-4.7,19.8Z" class="g0"/>
<image clip-path="url(#c0)" preserveAspectRatio="none" x="570" y="1085" width="219" height="32" xlink:href="img/15.png"/>
<path fill-rule="evenodd" d="M576.8,1106.2l4.9,-19.8H783.3l-5,19.8Z" class="g0"/>
<image clip-path="url(#c0)" preserveAspectRatio="none" x="773" y="1085" width="89" height="32" xlink:href="img/16.png"/>
<path fill-rule="evenodd" d="M779.5,1106.4l5.1,-20h71.5l-5.1,20Z" class="g0"/>
<path fill-rule="evenodd" d="M846.5,1086.5h9.9c5.4,0,9.8,4.4,9.8,9.9c0,5.4,-4.4,9.9,-9.8,9.9h-9.9Z" class="g0"/>
<path fill-rule="evenodd" d="M223.5,49.9h11.2V21.6H223.5V49.9Z" class="g1"/>
<path fill-rule="evenodd" d="M368.9,49.9h6.5V21.6h-6.5V49.9Z" class="g1"/>
<path fill-rule="evenodd" d="M502.4,49.9h11.2V21.6H502.4V49.9Z" class="g1"/>
<path fill-rule="evenodd" d="M711.9,49.9H723V21.6H711.9V49.9Z" class="g1"/>
<path fill-rule="evenodd" d="M43.3,67.3H868.5V65.6H43.3v1.7Z" class="g0"/>
<path fill-rule="evenodd" d="M43.3,223.9H866.4V222H43.3v1.9Z" class="g0"/>
<path fill-rule="evenodd" d="M623.4,277.4h7.7V259.8h-7.7v17.6Z" class="g1"/>
<path fill-rule="evenodd" d="M766.5,277.4h99.9V259.8H766.5v17.6Z" class="g1"/>
<path fill-rule="evenodd" d="M539.8,315.7h4.3V298.1h-4.3v17.6Z" class="g1"/>
<path fill-rule="evenodd" d="M759,315.7h99.9V298.1H759v17.6Z" class="g1"/>
<path fill-rule="evenodd" d="M671.2,354.2h7.5V336.6h-7.5v17.6Z" class="g1"/>
<path fill-rule="evenodd" d="M814.9,354.2h60.3V336.6H814.9v17.6Z" class="g1"/>
<path fill-rule="evenodd" d="M638.8,392.5h4.3V374.9h-4.3v17.6Z" class="g1"/>
<path fill-rule="evenodd" d="M806.5,392.5h59.9V374.9H806.5v17.6Z" class="g1"/>
<path fill-rule="evenodd" d="M557.3,430.9h4.2V413.3h-4.2v17.6Z" class="g1"/>
<path fill-rule="evenodd" d="M792.3,430.9h59.4V413.3H792.3v17.6Z" class="g1"/>
<path fill-rule="evenodd" d="M489.2,469.4h7.6V451.8h-7.6v17.6Z" class="g1"/>
<path fill-rule="evenodd" d="M763.2,469.4h88V451.8h-88v17.6Z" class="g1"/>
<path fill-rule="evenodd" d="M738.4,507.7h66.8V490.1H738.4v17.6Z" class="g1"/>
<path fill-rule="evenodd" d="M615.2,546.2h59.6V528.4H615.2v17.8Z" class="g1"/>
<path fill-rule="evenodd" d="M676.8,632h4.3V614.4h-4.3V632Z" class="g1"/>
<path fill-rule="evenodd" d="M799.9,632h6.7V614.4h-6.7V632Z" class="g1"/>
<path fill-rule="evenodd" d="M823.3,632h43.1V614.4H823.3V632Z" class="g1"/>
<path fill-rule="evenodd" d="M516,670.3h4.2V652.7H516v17.6Z" class="g1"/>
<path fill-rule="evenodd" d="M740.3,670.3h6.9V652.7h-6.9v17.6Z" class="g1"/>
<path fill-rule="evenodd" d="M757.5,670.3h42.9V652.7H757.5v17.6Z" class="g1"/>
<path fill-rule="evenodd" d="M715.5,708.7h4.2V691.1h-4.2v17.6Z" class="g1"/>
<path fill-rule="evenodd" d="M784.5,708.7h6.9V691.1h-6.9v17.6Z" class="g1"/>
<path fill-rule="evenodd" d="M808.3,708.7h42.9V691.1H808.3v17.6Z" class="g1"/>
<path fill-rule="evenodd" d="M581.6,747.2h4.3V729.6h-4.3v17.6Z" class="g1"/>
<path fill-rule="evenodd" d="M705.3,747.2h6.9V729.6h-6.9v17.6Z" class="g1"/>
<path fill-rule="evenodd" d="M729.3,747.2h42.9V729.6H729.3v17.6Z" class="g1"/>
<path fill-rule="evenodd" d="M710.8,785.5h6.9V767.9h-6.9v17.6Z" class="g1"/>
<path fill-rule="evenodd" d="M734.8,785.5h42.9V767.9H734.8v17.6Z" class="g1"/>
<path fill-rule="evenodd" d="M602.5,866.5h4.3V848.8h-4.3v17.7Z" class="g1"/>
<path fill-rule="evenodd" d="M803.5,866.5h4.2V848.8h-4.2v17.7Z" class="g1"/>
<path fill-rule="evenodd" d="M821.5,866.5h42.7V848.8H821.5v17.7Z" class="g1"/>
<path fill-rule="evenodd" d="M43.3,904.7H866.4v-1.9H43.3v1.9Z" class="g0"/>
<path fill-rule="evenodd" d="M43.3,1078.7H866.4v-1.8H43.3v1.8Z" class="g0"/>
<path fill-rule="evenodd" d="M43.3,1225.9H866.4v-1.8H43.3v1.8Z" class="g0"/>
<path fill-rule="evenodd" d="M218.9,1256.9h6.4v-28h-6.4v28Z" class="g1"/>
<path fill-rule="evenodd" d="M364.5,1256.9H371v-28h-6.5v28Z" class="g1"/>
<path fill-rule="evenodd" d="M611.7,1256.9h6.4v-28h-6.4v28Z" class="g1"/>
<image clip-path="url(#c1)" preserveAspectRatio="none" x="590" y="236" width="13" height="11" xlink:href="img/17.png"/>
<image clip-path="url(#c2)" preserveAspectRatio="none" x="579" y="591" width="13" height="11" xlink:href="img/18.png"/>
<path fill-rule="evenodd" d="M25.4,261.5H44.1V227.1H25.4v34.4Z" class="g1"/>
<path fill-rule="evenodd" d="M28.4,615.9H43.3V582.6H28.4v33.3Z" class="g1"/>
<image clip-path="url(#c0)" preserveAspectRatio="none" x="229" y="86" width="643" height="108" xlink:href="img/19.png"/>
<path d="M252,183.1c-4.4,0,-7.9,-3.5,-7.9,-7.9V143.5c0,-4.4,-3.6,-8,-8,-8c4.4,0,8,-3.5,8,-7.9V95.9c0,-4.4,3.5,-7.9,7.9,-7.9m598,0c4.3,0,7.9,3.5,7.9,7.9v31.7c0,4.4,3.5,7.9,7.9,7.9c-4.4,0,-7.9,3.6,-7.9,8v31.7c0,4.4,-3.6,7.9,-8,7.9" class="g2"/>
<path fill-rule="evenodd" d="M.9,1190.2H17.6l16.6,16.7v18.2H.9Z" class="g0"/>
<image clip-path="url(#c3)" preserveAspectRatio="none" x="346" y="28" width="11" height="22" xlink:href="img/20.png"/>
<image clip-path="url(#c4)" preserveAspectRatio="none" x="191" y="34" width="20" height="13" xlink:href="img/21.png"/>
<image clip-path="url(#c5)" preserveAspectRatio="none" x="477" y="28" width="14" height="22" xlink:href="img/22.png"/>
<image clip-path="url(#c6)" preserveAspectRatio="none" x="682" y="30" width="17" height="18" xlink:href="img/23.jpg"/>
<image clip-path="url(#c7)" preserveAspectRatio="none" x="849" y="30" width="17" height="17" xlink:href="img/24.png"/>
<image clip-path="url(#c8)" preserveAspectRatio="none" x="183" y="1231" width="26" height="26" xlink:href="img/25.png"/>
<image clip-path="url(#c9)" preserveAspectRatio="none" x="329" y="1234" width="26" height="24" xlink:href="img/26.png"/>
<image clip-path="url(#ca)" preserveAspectRatio="none" x="578" y="1232" width="24" height="24" xlink:href="img/27.png"/>
<image clip-path="url(#cb)" preserveAspectRatio="none" x="838" y="1231" width="28" height="28" xlink:href="img/28.png"/>
<path fill-rule="evenodd" d="M.9,1043.1H17.6l16.6,16.6v18.2H.9Z" class="g0"/>
<path fill-rule="evenodd" d="M1,868.9H17.6l16.7,16.6v18.2H1Z" class="g0"/>
<path fill-rule="evenodd" d="M.9,188.1H17.6l16.6,16.7V223H.9Z" class="g0"/>
<path fill-rule="evenodd" d="M.9,32.7H17.6L34.2,49.3V67.5H.9Z" class="g0"/>
<image clip-path="url(#c0)" preserveAspectRatio="none" x="89" y="133" width="130" height="13" xlink:href="img/29.png"/>
<path d="M92.1,136.5H209" class="g2"/>
<path fill-rule="evenodd" d="M25.7,848.8H42.8v-33H25.7v33Z" class="g1"/>
<path fill-rule="evenodd" d="M25.6,1114.1H41.9v-32.6H25.6v32.6Z" class="g1"/>
</svg>